<svg version="1.2" xmlns="http://www.w3.org/2000/svg" viewBox="0 0 460 460" width="460" height="460">
	<title>approuve-svg</title>
	<style>
		.s0 { fill: #443b3a } 
	</style>
	<path id="Path 0" fill-rule="evenodd" class="s0" d="m228 0.1c4.7-0.1 14.8 0.6 22.5 1.5 7.7 0.8 19.6 2.7 26.5 4.1 6.9 1.4 17.7 4.2 24 6.3 6.3 2 16.7 6.1 23 8.9 6.3 2.8 16.7 8.2 23 12 6.3 3.8 15.8 10.2 21 14.1 5.2 4 12.9 10.3 17 14.1 4.1 3.7 11.3 11.1 16 16.4 4.7 5.4 11.3 13.6 14.8 18.4 3.5 4.7 9.2 13.5 12.7 19.6 3.6 6.1 8.9 16.7 12 23.8 3 7 7.1 18 9 24.4 1.8 6.5 4.3 16.3 5.4 21.8 1.1 5.5 2.8 17.7 3.7 27 1.7 16.3 1.7 17.7 0 34.5-0.9 9.6-2.6 22-3.7 27.5-1.1 5.5-3.6 15.3-5.5 21.8-1.8 6.4-5.7 17-8.4 23.4-2.8 6.5-7.4 15.9-10.2 20.8-2.8 4.9-7.5 12.6-10.4 17-2.9 4.4-8.4 11.8-12.1 16.5-3.7 4.7-11.5 13.2-17.3 19-5.8 5.8-15.9 14.6-22.5 19.5-6.6 4.9-17.6 12.3-24.5 16.3-6.9 4-17.9 9.5-24.5 12.3-6.6 2.8-16.9 6.5-23 8.4-6.1 1.8-15.9 4.2-22 5.4-6.1 1.1-17 2.8-24.3 3.6-7.2 0.8-16.5 1.5-20.4 1.5-4 0-14.3-0.9-22.8-1.9-8.5-1.1-19.1-2.7-23.5-3.6-4.4-0.9-13.3-3.2-19.8-5.1-6.4-1.9-17-5.7-23.4-8.4-6.5-2.8-15.9-7.4-20.8-10.2-4.9-2.8-12.6-7.5-17-10.4-4.4-2.9-11.8-8.4-16.5-12.1-4.7-3.7-13.2-11.5-19-17.3-5.8-5.8-14.6-15.9-19.5-22.5-5-6.6-11.8-16.7-15.2-22.5-3.4-5.8-8.5-15.7-11.4-22-2.8-6.3-6.4-15.3-8-20-1.5-4.7-3.9-13-5.3-18.5-1.4-5.5-3.2-14.3-4-19.5-0.8-5.2-2-15.4-2.7-22.5-1.1-11.2-1-15.4 0.4-30.5 1-9.6 2.8-22.7 4.2-29 1.3-6.3 3.7-16.1 5.4-21.8 1.7-5.6 5.6-15.9 8.6-22.9 3-7.1 7.6-16.4 10.1-20.8 2.6-4.4 7-11.6 9.9-16 2.9-4.4 8.4-11.8 12.1-16.5 3.8-4.7 11.1-12.8 16.4-18 5.2-5.2 12.9-12.3 17-15.6 4.1-3.4 11.5-8.8 16.5-12.1 4.9-3.3 12.6-8.1 17-10.7 4.4-2.5 13.7-7.1 20.8-10.1 7-3 18-7 24.4-8.9 6.5-1.9 15.2-4.2 19.3-5.1 4.1-0.9 14-2.4 22-3.4 8-1 18.3-1.9 23-2zm-28 35c-4.1 0.6-12 2.2-17.5 3.5-5.5 1.4-13.8 3.9-18.5 5.5-4.7 1.6-13.9 5.6-20.5 8.8-6.6 3.3-16.3 8.7-21.5 12.1-5.2 3.4-13.1 9.3-17.5 13-4.4 3.7-11.7 10.5-16.2 15.1-4.5 4.6-10.1 10.9-12.6 13.9-2.4 3-7.4 10-11 15.5-3.6 5.5-9.2 15.6-12.5 22.5-3.2 6.9-7.1 15.9-8.5 20-1.5 4.1-3.6 11.1-4.7 15.5-1.1 4.4-2.7 11.8-3.6 16.5-0.9 4.7-1.8 16.6-2.1 26.5-0.4 11.1-0.1 21.9 0.6 28 0.6 5.5 2 14.1 3.1 19 1 4.9 3.5 14.2 5.5 20.5 2 6.3 6.3 16.9 9.4 23.5 3.1 6.6 8.3 16.1 11.5 21 3.2 4.9 8.7 12.6 12.1 17 3.4 4.4 11.2 12.7 17.1 18.5 6 5.8 13.6 12.6 16.9 15.1 3.3 2.6 9.6 7 14 9.9 4.4 2.8 13.8 8 21 11.5 7.2 3.5 18.2 8 24.5 10 6.3 2 15.6 4.5 20.5 5.5 4.9 1.1 12.8 2.4 17.5 3 4.7 0.5 15 1 23 1 8 0 18.3-0.5 23-1 4.7-0.6 12.8-2 18-3.1 5.2-1.1 14.9-3.8 21.5-6 6.6-2.2 17.2-6.5 23.5-9.5 6.3-3.1 15.3-8.1 20-11.1 4.7-3.1 11.2-7.6 14.5-10.2 3.3-2.5 10.7-9.1 16.4-14.6 5.7-5.5 13-13.4 16.4-17.5 3.3-4.1 8.7-11.6 12-16.5 3.2-4.9 8.5-14.4 11.7-21 3.3-6.6 7.3-16.1 9-21 1.7-4.9 4.2-13.3 5.5-18.5 1.3-5.2 3.1-14.6 3.9-20.8 0.9-6.1 1.6-18 1.6-26.2 0-8.3-0.7-20.1-1.6-26.3-0.8-6.1-2.6-15.5-3.9-20.7-1.3-5.2-3.8-13.6-5.5-18.5-1.7-4.9-5.7-14.4-9-21-3.2-6.6-8.2-15.6-11-20-2.9-4.4-7.3-10.7-9.8-14-2.5-3.3-9.3-10.9-15.1-16.9-5.8-5.9-14.2-13.6-18.6-17.1-4.4-3.4-12.1-8.9-17-12.1-4.9-3.2-14.4-8.4-21-11.5-6.6-3.1-17.2-7.4-23.5-9.4-6.3-2-15.6-4.5-20.5-5.5-4.9-1.1-12.8-2.4-17.5-3-4.7-0.5-15.7-0.9-24.5-0.9-8.8 0.1-17.1 0.3-18.5 0.5-1.4 0.2-5.9 0.9-10 1.5zm124.5 117c2.2 0.4 5.1 1.6 6.4 2.6 1.3 1 3.2 3.4 4.2 5.3 1.1 1.9 1.9 5.3 1.9 7.5-0.1 2.2-0.9 5.4-1.8 7.1-0.9 1.7-27.6 31.4-59.3 66-31.7 34.6-58.5 63.6-59.5 64.6-1 0.9-3.5 2.1-5.4 2.6-1.9 0.6-5.1 0.7-7 0.3-1.9-0.4-4.4-1.3-5.5-1.9-1.1-0.6-18.1-17.2-37.7-36.9-19.6-19.7-36.2-37-36.7-38.6-0.6-1.5-1.1-4.4-1.1-6.5 0-2 1.1-5.5 2.4-7.7 1.4-2.3 3.8-4.7 6-5.8 2-0.9 5.4-1.7 7.6-1.7 2.2 0 5 0.5 6.3 1.1 1.2 0.6 15.4 14.2 60.7 59.4l3.3-3.5c1.9-1.9 25-27.1 51.4-56 26.4-28.9 49.1-53.5 50.4-54.7 1.3-1.2 4-2.5 5.9-3 1.9-0.5 5.2-0.6 7.5-0.2z"/>
</svg>