<svg version="1.2" xmlns="http://www.w3.org/2000/svg" viewBox="0 0 471 470" width="471" height="470">
	<title>bulle</title>
	<style>
		.s0 { fill: #ee7d01 } 
	</style>
	<path id="Path 0" fill-rule="evenodd" class="s0" d="m235 0.1c135.8-0.1 138.7-0.1 148 1.9 5.2 1.2 11.8 2.8 14.5 3.7 2.8 0.8 9.1 3.6 14 6 4.9 2.4 11.9 6.6 15.5 9.3 3.6 2.6 9.9 8.3 14 12.6 4.1 4.4 9.1 10.4 11.1 13.4 2.1 3 5.3 8.7 7.2 12.5 1.9 3.8 4.5 9.9 5.7 13.5 1.2 3.6 3.1 10.9 4.1 16.3 1.8 9.1 1.9 15.4 1.9 102.5 0 80.1-0.2 93.9-1.6 101.7-0.9 4.9-2.7 12.6-4.1 17-1.4 4.4-4.4 11.6-6.7 16-2.2 4.4-6.1 10.7-8.5 14-2.5 3.3-6.7 8.4-9.5 11.4-2.8 2.9-8.7 8-13.1 11.3-4.4 3.3-12.1 8-17 10.4-4.9 2.3-13.3 5.5-28 9.8l-150 0.7-39 38.8c-26.8 26.7-40.4 39.6-43.5 41.1-2.5 1.3-7 3.1-10 4.2-3 1-8 1.8-11 1.8-3 0-8-0.9-11-1.9-3-1-6.8-2.5-8.5-3.4-1.7-0.8-4.8-2.9-7-4.7-2.2-1.8-5.7-5.5-7.8-8.3-2.1-2.9-4.7-8.1-5.8-11.7-1.7-5.7-1.9-9.5-1.9-57.5l-8.2-2.3c-4.6-1.3-11.5-3.8-15.3-5.6-3.8-1.8-10.2-5.3-14-7.8-3.8-2.6-9.9-7.3-13.5-10.6-3.6-3.2-9.1-9.2-12.2-13.3-3.1-4.1-7.5-10.8-9.7-14.9-2.2-4.1-5.2-10.9-6.6-15-1.4-4.1-3.4-12-4.5-17.5-1.9-9.5-2-14.2-2-102.5 0-80.1 0.2-93.8 1.6-102 0.9-5.2 2.7-12.9 4.1-17 1.3-4.1 4-10.7 6-14.5 1.9-3.8 5.1-9.5 7.2-12.5 2-3 6.7-8.8 10.6-12.9 3.8-4.1 9.9-9.6 13.5-12.3 3.6-2.8 11.5-7.4 17.5-10.4 6-2.9 14.6-6.2 19-7.3 4.4-1.1 9.8-2.4 12-2.9 2.5-0.6 56.3-1 142.5-1.1zm-156 50.1c-6.5 3.2-10.3 6-16.1 11.7-5.8 5.8-8.5 9.6-11.7 16.1-2.3 4.7-4.9 11.7-5.7 15.5-1.2 5.8-1.5 22.1-1.5 98.8 0 80.3 0.2 92.6 1.6 99 0.9 3.9 3.1 10.3 4.9 14.2 1.9 3.9 5.3 9.3 7.7 12.1 2.4 2.8 5.9 6.5 7.8 8.2 1.9 1.6 6.2 4.6 9.5 6.6 3.3 2 8.4 4.5 11.2 5.6 2.9 1.1 10.8 2.7 17.6 3.5 9.4 1.1 12.9 2 15.5 3.7 1.8 1.3 4.5 4.1 6 6.2l2.7 3.9c0.4 52.9 0.8 68.9 1.1 69.7 0.3 1 13.4-11.4 41.2-39.1 22.4-22.4 41.8-41.3 43.2-42 2-1.1 17.8-1.5 81.5-2 72-0.5 79.5-0.7 85-2.3 3.3-1 8.7-3.2 12-4.8 3.3-1.7 8.2-4.8 11-7 2.7-2.1 7.1-6.5 9.8-9.6 2.6-3.1 6.3-8.8 8.1-12.7 1.9-3.9 4.2-10.5 5-14.8 1.4-6.7 1.6-20 1.6-99 0-75.9-0.3-92.4-1.5-98.2-0.8-3.8-3.4-10.8-5.7-15.5-3.2-6.4-6.2-10.4-11.8-16.1-5.8-5.8-9.5-8.5-16-11.7-4.7-2.3-11.6-4.9-15.5-5.7-6-1.2-27.1-1.5-142-1.4-111.6 0-136.1 0.3-141.5 1.5-3.6 0.7-10.3 3.2-15 5.6zm60.2 109.9c1-0.1 4.2 0.4 7 1 2.9 0.6 7.1 2.1 9.3 3.4 2.2 1.3 5.7 4.1 7.7 6.2 2 2.1 4.7 6 6 8.8 1.8 3.9 2.3 6.8 2.3 13 0 6.6-0.5 8.9-2.7 13.5-1.4 3-4.5 7.2-6.7 9.2-2.3 2.1-6 4.8-8.4 6-3.5 1.9-5.8 2.3-13.7 2.3-7.9 0-10.2-0.4-13.8-2.3-2.3-1.2-6-3.9-8.3-6-2.2-2-5.3-6.2-6.7-9.2-2.2-4.6-2.7-6.9-2.7-13.5 0-6.2 0.5-9.1 2.3-13 1.3-2.8 4-6.7 6-8.8 2-2.1 5.3-4.8 7.2-6 1.9-1.2 5.7-2.7 8.5-3.3 2.7-0.7 5.8-1.3 6.7-1.3zm96 0c1-0.1 4.2 0.4 7 1 2.9 0.6 7.1 2.1 9.3 3.4 2.2 1.3 5.7 4.1 7.7 6.2 2 2.1 4.7 6 6 8.8 1.8 3.9 2.3 6.8 2.3 13 0 6.6-0.5 8.9-2.7 13.5-1.4 3-4.5 7.2-6.7 9.2-2.3 2.1-6 4.8-8.4 6-3.5 1.9-5.8 2.3-13.7 2.3-7.9 0-10.2-0.4-13.8-2.3-2.3-1.2-6-3.9-8.3-6-2.2-2-5.3-6.2-6.7-9.2-2.2-4.6-2.7-6.9-2.7-13.5 0-6.2 0.5-9.1 2.3-13 1.3-2.8 4-6.7 6-8.8 2-2.1 5.3-4.8 7.2-6 1.9-1.2 5.7-2.7 8.5-3.3 2.7-0.7 5.8-1.3 6.7-1.3zm96 0c1-0.1 4.2 0.4 7 1 2.9 0.6 7.1 2.1 9.3 3.4 2.2 1.3 5.7 4.1 7.7 6.2 2 2.1 4.7 6 6 8.8 1.8 3.9 2.3 6.8 2.3 13 0 6.6-0.5 8.9-2.7 13.5-1.4 3-4.5 7.2-6.7 9.2-2.3 2.1-6 4.8-8.4 6-3.5 1.9-5.8 2.3-13.7 2.3-7.9 0-10.2-0.4-13.8-2.3-2.3-1.2-6-3.9-8.3-6-2.2-2-5.3-6.2-6.7-9.2-2.2-4.6-2.7-6.9-2.7-13.5 0-6.2 0.5-9.1 2.3-13 1.3-2.8 4-6.7 6-8.8 2-2.1 5.3-4.8 7.2-6 1.9-1.2 5.7-2.7 8.5-3.3 2.7-0.7 5.8-1.3 6.7-1.3z"/>
</svg>