<svg version="1.2" xmlns="http://www.w3.org/2000/svg" viewBox="0 0 512 390" width="512" height="390">
	<title>enveloppe</title>
	<style>
		.s0 { fill: #ee7d01 } 
	</style>
	<path id="Path 0" fill-rule="evenodd" class="s0" d="m53.5 0.1l404-0.1 9 2.8c4.9 1.5 11.7 4.4 15 6.4 3.3 2 8.7 6.3 12 9.6 3.3 3.3 7.5 8.4 9.2 11.4 1.8 2.9 4.5 8.7 8.8 20.3v289l-2.8 7.5c-1.5 4.1-4.2 9.9-6 12.8-1.7 3-5.9 8.1-9.2 11.4-3.3 3.3-8.7 7.6-12 9.6-3.3 2-10.1 4.9-24 9.2h-403l-9-2.8c-5-1.5-11.7-4.4-15-6.4-3.3-2-8.7-6.3-12-9.6-3.3-3.3-7.5-8.4-9.2-11.4-1.8-2.9-4.5-8.7-8.8-20.3v-289l2.8-7.5c1.5-4.1 4.2-9.9 6-12.8 1.7-3 5.9-8.1 9.2-11.4 3.3-3.3 8.7-7.6 12-9.6 3.3-2 9.8-4.8 14.5-6.3zm-10.3 35.1c-2.3 1.5-5.8 4.9-7.7 7.5-1.9 2.6-4.1 6.7-5 9.2-1.3 4-1.5 20.8-1.5 143.3v138.7c3.6 9.6 6 13.2 9.4 16.6 2.8 2.7 7.4 6.1 10.1 7.5l5 2.4h405c9.3-4.7 13.6-8.1 16.2-11 2.4-2.7 5.3-7.3 6.4-10.2 1.8-5.1 1.9-8.9 1.7-145.5l-0.3-140.3c-3.4-7-6.1-10.9-8.2-13.3-2.3-2.7-6.3-5.6-10.3-7.5l-6.5-3.2c-387-0.4-400.3-0.3-405 1.3-2.8 0.9-7 3-9.3 4.5zm32.3 19.4c1.7 0.3 4 1.1 5.3 1.9 1.2 0.8 41.2 36.3 175.7 156.6l2.5-2.5c1.4-1.3 39.9-35.9 85.5-76.8 45.7-40.9 84.4-75.4 86-76.7 2.3-1.7 4.3-2.2 8.3-2.2 4.4 0 5.7 0.5 8.8 3.3 1.9 1.8 4 4.8 4.6 6.7 0.8 2.5 0.8 4.7 0 7.5-0.9 3.6-7.4 9.7-63.4 59.9-34.3 30.8-63.1 56.6-64.1 57.5-1.7 1.5 1.8 5.1 62.3 62.6 50.7 48.3 64.3 61.7 65.2 64.5 0.6 2 0.7 5.3 0.3 7.5-0.4 2.6-1.9 5.1-3.9 7-1.7 1.7-4.7 3.4-6.6 3.8-1.9 0.4-5.2 0.3-7.2-0.3-3.1-0.8-15.8-12.4-66-60.1-34.3-32.6-63.4-60.2-67.3-63.8l-18 16.1c-9.9 8.8-18.9 16.7-20 17.5-1.1 0.7-4.2 1.4-7 1.4-3.1 0-6-0.7-7.5-1.7-1.4-1-10.3-8.6-37-32.4l-64.2 60.2c-35.4 33-65.2 60.7-66.3 61.5-1.1 0.8-4 1.5-6.5 1.5q-4.5 0.2-8-1.9c-1.9-1.1-4.3-3.7-5.2-5.7-1-2-1.8-4.9-1.8-6.6 0-1.6 0.6-4.2 1.3-5.7 0.6-1.5 29.8-29.4 64.7-62.1 34.9-32.7 63.6-59.9 63.8-60.3 0.1-0.5-28.8-26.8-64.3-58.4-59.6-53.1-64.6-57.8-65.7-61.7-0.8-3.3-0.8-5.2 0-8 0.7-2.1 2.4-4.9 4-6.3 1.5-1.4 4.1-3 5.7-3.5 1.7-0.4 4.4-0.6 6-0.3z"/>
</svg>