<svg version="1.2" xmlns="http://www.w3.org/2000/svg" viewBox="0 0 512 512" width="512" height="512">
	<title>grill</title>
	<style>
		.s0 { fill: #ee7d01 } 
	</style>
	<path id="Path 0" fill-rule="evenodd" class="s0" d="m260.5 0.1c9.6-0.1 14 0.4 22 2.4 5.5 1.4 13.4 4 17.5 5.8 4.1 1.8 10 4.9 13 6.9 3 2 9.5 7.2 14.5 11.5 4.9 4.3 10.2 9.8 11.7 12.3 1.8 2.9 2.8 5.9 2.8 8.3 0 2-0.5 4.9-1 6.4-0.6 1.6-41.2 42.9-90.3 92-87.4 87.4-89.2 89.3-86.7 94.3h64v-8.2c0-4.6 0.5-10 1-12 0.6-2.1 2.2-5.2 3.8-6.9 1.5-1.7 4.5-3.7 6.7-4.5 3.4-1.2 12-1.4 102.7-0.9l1.9 2.5c1.1 1.4 2 3.6 2 5 0 1.4-1.1 3.5-4.6 6.9l-98 0.6-0.2 7.5c-0.2 4.9 0.1 7.9 1 8.8 1 1 15.1 1.3 70.7 1.2 38.2 0 70.1-0.4 70.8-0.8 0.9-0.5 1.2-3.1 0.7-16.7l-7.7-0.5c-5.4-0.3-8.4-1-9.8-2.3-1.2-1-2-3-2-5-0.1-2 0.7-3.9 2.1-5.2 1.7-1.6 3.8-2.1 10.8-2.3 7.5-0.3 9.2 0 13.1 2.1 2.5 1.3 5.4 3.9 6.5 5.8 1.5 2.6 2.1 5.9 3 24.4l8 0.5c5.9 0.4 8.8 1.1 11 2.6 1.6 1.2 3.8 3.7 4.7 5.8 1.4 2.8 1.8 6.3 1.8 16.4 0 7-0.7 16.1-1.5 20.2-0.7 4.1-2.3 10-3.3 13-1.1 3-3.4 8.6-5.3 12.5-1.8 3.9-5.9 10.4-8.9 14.5-3.1 4.1-8.3 9.9-11.6 12.9-3.2 3-8.4 7.1-11.4 9.1-3 2.1-8.2 5.1-11.5 6.7-3.3 1.7-8.4 3.8-11.3 4.7-3.3 1-5 2.1-4.7 2.9 0.3 0.6 5.7 21.1 23.5 89.7l5.8 5.7c4.3 4.3 6.5 7.4 8.1 11.8 1.8 4.8 2.2 7.4 1.9 13-0.3 4.7-1.2 8.6-2.9 11.9-1.3 2.7-4.1 6.6-6.2 8.7-2 2.2-6.5 5.3-10 6.9-4.9 2.4-7.5 3-12.7 3-5.2 0-7.8-0.6-12.8-3-3.4-1.6-7.9-4.7-10-6.9-2-2.1-4.8-6-6.1-8.7-1.5-3.1-2.6-7.3-2.9-11.4-0.3-4.5 0.1-8.2 1.3-12 1.6-5 1.6-6.1-1.1-17.5l-54.2-0.3c-50.9-0.2-54.2-0.1-54.7 1.5-0.2 1-3 11.5-6 23.3-3.3 12.4-6.5 22.8-7.7 24.5-1.2 1.6-3.1 3.8-4.2 4.8-1.2 1-3.8 2.7-5.8 3.7-2.5 1.3-5.8 2-9.3 2-3.7 0-6.7-0.7-9.2-2.1-2.1-1.1-5.1-3.3-6.6-4.7-1.6-1.5-3.6-4.1-4.5-5.7-0.8-1.6-1.9-5-2.2-7.5-0.5-3.1-0.1-7.1 1.3-13 1.3-5.6 2.8-9.3 4.3-10.7 1.3-1.3 3.3-2.3 4.6-2.3 1.3 0 3.2 0.6 4.3 1.3 1.1 0.8 2.3 2.6 2.8 4 0.4 1.6 0.1 5.2-0.9 8.9-0.9 3.5-1.6 7.7-1.6 9.3 0 2 0.8 3.7 2.6 5.2 1.4 1.3 3.7 2.3 5.1 2.3 1.4 0 3.6-1 5-2.3 2.3-1.9 4.6-10 19-66.2 9.1-35.2 16.4-64.1 16.2-64.1-0.1-0.1-3.8-0.4-16.2-0.9l-11.7 45.5c-9.8 37.9-12.2 45.8-14 47.3-1.3 1-3.5 1.8-5 1.7-1.6 0-3.7-1-4.8-2.3-1.1-1.2-2-3.3-2-4.7 0-1.4 5-21.9 11.1-45.5 6.1-23.6 11.3-43.4 11.6-44 0.2-0.6-3.4-2.4-7.9-4.2-4.6-1.8-12.1-5.6-16.8-8.5-4.7-2.9-11.9-8.7-16.1-12.8-4.2-4.1-9.4-10.1-15.4-19.1l-22.5 0.1c-21.9 0-22.6 0-27.5-2.4-3.1-1.6-6.1-4-8-6.7-2.4-3.3-3.1-5.5-3.4-10.3-0.3-4.6 0.1-7.1 1.7-10.1 1-2.2 3.6-5.5 5.6-7.3 2-1.7 5.3-3.6 7.4-4.2 2-0.5 10.3-1 18.5-1 13.3 0 14.7-0.2 14.7-1.8 0.1-1-1.5-2.5-4.1-3.7-2.3-1.1-5.5-3.5-7-5.3-1.6-1.7-3.6-4.7-4.5-6.5-0.9-1.7-1.8-5.5-2.1-8.2-0.3-3 0.2-6.9 2.7-14.5l-3.6-4.3c-2-2.3-5.6-7.4-8-11.2-2.4-3.8-5.7-10.8-7.4-15.5-1.7-4.7-3.8-11.7-4.6-15.5-0.8-3.8-1.5-11.9-1.5-18-0.1-6.1 0.4-13.9 1.1-17.5 0.7-3.6 2.1-9.4 3.2-13 1.1-3.6 3.4-9.2 5-12.5 1.7-3.3 4.8-8.7 7-12 2.2-3.3 7.9-9.9 21.3-23.5l-4.2-4.2c-2.3-2.4-4.9-6-5.8-8.1-0.8-2-1.5-4.8-1.5-6.2 0-1.4 0.7-4.2 1.6-6.3 0.9-2.3 7.8-10 18.2-20.5 9.2-9.2 18.2-17.4 20-18.2 1.7-0.8 5-1.5 7.2-1.5 2.2 0 5.7 0.9 7.8 1.9 2 1.1 5.1 3.3 6.7 5 1.7 1.7 3.4 3.1 4 3.1 0.6 0 4.4-3.4 8.5-7.6 4.1-4.1 11.1-10 15.5-12.9 4.4-3 11.4-6.8 15.5-8.6 4.1-1.7 11.6-4.2 16.5-5.5 6.8-1.7 11.9-2.3 21-2.3zm-24.5 19c-3.6 1.2-8.7 3.3-11.5 4.6-2.7 1.4-7.7 4.5-11 6.8-3.3 2.4-24.9 23.4-48.1 46.7-26.6 26.7-43.5 44.5-45.9 48.3-2.1 3.3-5.1 8.9-6.5 12.5-1.5 3.6-3.5 9.9-4.4 14-1.2 4.8-1.8 11.4-1.7 18.5 0 7.6 0.7 13.5 2.1 19 1.1 4.4 3.8 11.6 6 16 2.1 4.4 5.7 10.3 7.8 13 3 4 4.3 4.9 6.3 4.7 1.3-0.2 5.8-0.4 9.9-0.5 4.1 0 8.6 0.3 10 0.7 2.3 0.6 10.1-6.9 90.5-87.3l88-88.1c-10.1-10.2-15.7-15.1-19-17.5-3.3-2.4-9.4-5.9-13.5-7.8-4.1-2-10.2-4.3-13.5-5.1-3.3-0.9-11.2-1.9-17.5-2.1-6.3-0.2-13.7 0-16.5 0.5-2.7 0.5-7.9 1.9-11.5 3.1zm-103.5 54.9l7.5 7.5c24.8-24.8 32-32.5 32-33 0-0.6-1.2-2.2-2.7-3.7-1.6-1.5-3.3-2.8-3.8-2.8-0.6 0-8.2 7.2-17 16zm-3.1 170.3c-0.4 1.2-0.4 3.4 0 5 0.3 1.5 1.8 3.8 3.3 5.2 2 1.8 3.9 2.6 6.5 2.5 2.5 0 4.7-0.8 6.5-2.3 1.6-1.3 3.1-3.7 3.4-5.3 0.4-1.6 0.2-4.2-0.5-5.9-0.7-1.6-2.3-3.8-3.7-4.8-1.3-0.9-4-1.7-6-1.7-2.5 0-4.4 0.8-6.3 2.5-1.4 1.4-2.9 3.5-3.2 4.8zm32.7 13.5c-0.6 1.5-2.8 4.4-4.8 6.6-2.1 2.1-5.3 4.5-7.1 5.2l-3.2 1.4c0.9 8.9 1.8 14 2.6 17 0.8 3 2.2 7.4 3.2 9.7l1.7 4.3 251 0.1c3.5-9 5.1-14.5 6-18.1 0.8-3.7 1.5-11.4 1.5-17.7v-11.3h-249.8zm-63.3 38.1c0.1 1.4 0.9 3.4 1.9 4.4 1.5 1.5 4.1 1.7 19.5 1.7 16.4 0.1 17.7-0.1 17.3-1.7-0.2-1-1-3.7-1.7-6l-1.3-4.3c-27.9 0-31.5 0.4-33.4 1.6q-2.4 1.6-2.3 4.3zm68.4 25.3c1.3 1.7 5.6 5.8 9.8 9.1 4.1 3.3 11 7.8 15.2 9.9 4.3 2.1 11.5 4.9 16 6.1 8.2 2.2 9 2.3 71.8 2.3 58.8 0 64-0.2 70.5-1.9 3.8-1 9.7-3 13-4.4 3.3-1.4 8.9-4.4 12.5-6.7 3.5-2.3 9.3-6.9 12.7-10.3 3.5-3.5 6.3-6.7 6.3-7.2 0-0.7-39-1-115-1-63.3 0-115 0.2-115 0.5 0 0.2 1 1.9 2.2 3.6zm160.2 44.6c0.3 1 5.2 20.2 11.1 42.8 5.8 22.5 10.8 41.5 11 42.2 0.4 1 1.1 0.9 3.5-0.2 1.6-0.9 5-1.9 7.5-2.3 2.5-0.4 4.5-1 4.5-1.2 0-0.3-4.8-19.3-10.7-42.3l-10.8-41.8c-4.7 0.3-8.4 0.6-11.3 0.7-4.4 0.3-5.2 0.6-4.8 2.1zm-84.4 20l-5 19.3c75.1 0 83.9-0.3 83.6-1.3-0.1-0.7-2.5-9.9-5.2-20.5l-4.9-19.2c-55.4 0-62.7 0.2-63 1.2-0.3 0.7-2.8 9.9-5.5 20.5zm-10.4 40.5c-0.9 3.4-1.8 7.3-2.1 8.5l-0.5 2.3c77.5 0 100-0.4 100-0.8 0-0.4-0.5-2.3-1-4.2-0.5-2-1.4-5.5-2-7.8l-1-4.2h-91.8zm119.4 43.6c-1.8 2.4-2.6 5-2.9 8.5-0.2 3.9 0.3 6.1 2.1 9.6 1.7 3.2 3.8 5.2 6.8 6.8 2.5 1.2 6 2.2 8 2.2 1.9 0 5.4-1 7.9-2.2 3-1.6 5.1-3.6 6.8-6.8 1.9-3.5 2.3-5.7 2.1-9.6-0.2-3.5-1.1-6.1-2.9-8.5-1.4-1.9-4.3-4.2-6.3-5.1-2-1-5.6-1.8-7.9-1.8-2.3 0-5.8 0.8-7.7 1.8-1.8 0.9-4.5 3.2-6 5.1zm-62-337.9c0.8 0 2.7 0.8 4.2 2 2 1.5 2.7 2.9 2.7 5.3 0 1.7-0.9 4.3-1.9 5.7-1.1 1.4-2 4-2 5.8 0 2 1.1 4.9 3.3 8 1.8 2.6 3.9 6.5 4.6 8.7 0.7 2.2 1.1 6.3 0.9 9.1-0.2 3.4-1.3 6.6-3.4 10-1.8 2.8-4.2 5.3-5.7 5.9-1.9 0.7-3.6 0.7-5.5 0-1.5-0.6-3.3-2.3-4-3.8-1.1-2.4-0.9-3.3 1.3-7.7 1.3-2.7 2.5-6.1 2.5-7.5 0-1.4-1.1-3.7-2.5-5.2-1.3-1.6-3.3-4.8-4.4-7.3-1.3-2.8-2.1-6.6-2.1-10 0-3.4 0.7-7 1.9-9.5 1.1-2.2 2.5-4.7 3.2-5.6 0.8-0.8 2.3-2.1 3.4-2.7 1.1-0.6 2.6-1.2 3.5-1.2zm37 0c0.8 0 2.7 0.8 4.2 2 2 1.5 2.7 2.9 2.7 5.3 0 1.7-0.9 4.3-1.9 5.7-1.1 1.4-2 4.1-2.1 6 0 2.4 0.9 4.7 3.1 7.5 1.7 2.2 3.8 6 4.7 8.5q1.6 4.5 1 9.5c-0.3 2.8-1.2 6.4-2 8-0.9 1.7-2.7 4.2-4.1 5.8-1.5 1.5-3.7 2.7-5.1 2.7-1.4 0-3.4-0.4-4.5-1-1.1-0.5-2.5-2.2-3.1-3.7-0.8-2.3-0.6-3.6 1.5-7.5 1.4-2.7 2.6-5.7 2.6-6.8 0-1.1-2-4.8-4.3-8.2-3.8-5.7-4.3-7-4.6-13.3-0.2-5.9 0.1-7.8 2.3-12.2 1.5-3.1 3.7-5.9 5.3-6.8 1.5-0.8 3.4-1.5 4.3-1.5zm37.2 0c1 0 2.9 1.1 4.3 2.5 1.3 1.4 2.5 3.6 2.5 5 0 1.4-0.9 3.9-2 5.5-1.1 1.7-2.1 4.5-2.1 6.3-0.1 1.9 0.7 4.2 1.9 5.7 1.2 1.4 3.1 4.3 4.3 6.5 1.1 2.2 2.3 6 2.6 8.5 0.3 2.8-0.1 6.4-1.1 9.5-0.9 2.8-3.1 6.5-4.9 8.3-2.2 2.3-4.2 3.3-6.2 3.3-1.7 0-3.8-0.8-4.7-1.8-0.9-1-1.9-2.8-2.2-4-0.4-1.5 0.2-3.9 1.9-6.8 1.3-2.5 2.5-5.3 2.5-6.2 0-1-1.6-4.2-3.5-7-2-2.9-4-6.5-4.6-8-0.6-1.6-1.1-5.3-1.2-8.3 0-4.2 0.6-6.7 2.9-10.9 1.6-2.9 4-5.9 5.4-6.7 1.3-0.7 3.2-1.3 4.2-1.4z"/>
</svg>