<svg version="1.2" xmlns="http://www.w3.org/2000/svg" viewBox="0 0 460 460" width="460" height="460">
	<title>outil-svg</title>
	<style>
		.s0 { fill: #443b3a } 
	</style>
	<path id="Path 0" fill-rule="evenodd" class="s0" d="m97.6 0.1c11.4-0.1 15.7 0.4 25 3.1 6.2 1.7 14.9 5 19.3 7.2 4.4 2.2 11.6 7 16.3 10.5 4.5 3.7 11.4 10.5 15 15.2 3.8 4.6 8.8 12.2 11 16.9 2.4 4.5 5.3 12.2 6.8 17.1 1.3 4.8 2.8 14.1 3.2 20.4 0.6 8.8 0.2 14.6-4 35.6l49.6 49.5 94.8-94.9 16.8-33.6 34.7-23.5c19.7-13.4 36-23.6 37.4-23.6 2 0 8.1 5.3 19.7 16.9 11.7 11.6 16.8 17.6 16.8 19.6 0 1.4-9.5 16.8-21.8 34.8-11.8 17.6-22.5 33.3-23.5 34.6-0.9 1.5-9.5 6.5-36.1 20l-94.2 94.3 49.5 49.6 12-2.4c9-1.8 14.8-2.2 23.6-1.6 6.3 0.4 15.8 1.9 20.8 3.3 5 1.5 13.3 4.8 18.3 7.6 5 2.7 12.4 7.5 16.3 10.6 3.9 3.1 10.1 9.5 13.9 14.3 3.7 4.7 8.7 12.2 10.9 16.9 2.3 4.5 5.3 12.2 6.8 17.1 1.4 5 2.8 14.2 3.1 21.6 0.5 9.3 0.2 15.4-1.3 22.1-1.1 5-2.9 11.1-4.2 13.4-1.8 3.7-2.7 4.3-6.9 4.7-4.9 0.3-5.1 0.1-53.9-48.9l-16.5 4.5c-9 2.4-16.6 4.5-16.8 4.6-0.2 0.1-2.3 7.7-9 33.3l24.6 24.4c24.3 24.3 24.6 24.5 24.2 29.4-0.2 3.8-1.1 5.1-4 6.9-2 1.2-8.3 3-14.1 4.2-7.6 1.5-13.6 1.9-22.6 1.4-6.8-0.4-15.6-1.6-19.6-2.7-4-1-11.7-4-17.1-6.6-5.4-2.6-13.4-7.4-17.6-10.7-4.5-3.3-10.4-9-13.6-12.7-3.1-3.6-7.7-10.3-10.3-14.7-2.6-4.4-6.4-12.9-8.3-18.9-2.8-8.5-3.9-14.1-4.4-23.9-0.5-9.4 0-16 3.6-36.1l-11.9-12c-6.8-6.4-12.8-11.8-13.4-11.8-0.7 0-4 2.8-7.3 6.2-3.4 3.4-7.9 7-9.8 8.1-2.1 1-6.1 1.8-9.2 1.8-3.9-0.1-7.1-1.2-11.4-3.9-3.1-1.9-6.8-3.7-8-3.7-1.4 0-3.3 0.9-4.3 1.9-1.1 1-2 3.3-2 5.2 0 2.4 1.7 5.1 6.1 9.5 4.7 4.6 6.2 6.9 6.2 9.7 0 3.2-6.5 10.2-51.1 54.6-42.9 42.8-52.3 51.6-58.4 54.7-4.1 1.9-11.3 4.8-15.9 6.2-4.8 1.4-11.9 2.6-15.9 2.6-4.1 0-10.7-0.9-14.7-2-4.1-1.1-10.7-3.5-14.7-5.5-4-1.9-10.2-6-13.5-8.9-3.4-2.8-8.2-8.2-10.7-11.9-2.5-3.6-6-10.4-7.7-15.1-1.9-5.3-3.3-12.4-3.8-18.4-0.4-6.7 0-12.3 1.3-18 1.1-4.6 3.7-11.7 5.8-15.9 3.3-6.6 11.2-15.1 54.9-59.3 47-47.5 51.5-51.8 55.3-51.8 3.2 0 5.3 1.3 10.1 6.2 4.3 4.4 7.1 6.1 9.5 6.1 1.8 0 4.1-0.9 5.1-1.9 1.1-0.9 2-2.9 2-4.2 0-1.4-1.8-5.1-3.7-8.2-2.8-4.4-3.7-7.4-3.7-11.7 0-3.3 0.8-7.3 1.7-9.1 1-2 4.6-6.1 8-9.6 3.4-3.3 6.2-6.6 6.2-7.3 0-0.7-5.4-6.6-23.8-25.3l-12.3 2.2c-8.8 1.4-15.5 1.8-23.8 1.3-6.4-0.4-14.9-1.6-19-2.7-4-1-11.7-4-17.1-6.6-5.4-2.6-13.5-7.6-18.1-11.2-4.5-3.7-11.3-10.6-15.1-15.2-3.8-4.7-8.9-13-11.5-18.4-2.7-5.3-5.7-13.3-6.8-17.7-1.6-5.9-2.2-12.4-2.2-24.5 0-14.3 0.5-17.6 3-25.1 2.2-6.2 3.8-8.9 6-10 2.1-1 4.1-1 6.2-0.2 1.7 0.7 13.8 12 50.7 48.9l16.5-4.4c9.1-2.3 16.7-4.4 16.8-4.6 0.2-0.2 2.3-7.8 9.1-33.3l-23.9-23.9c-13.1-13.1-24.3-25.2-25-26.9-0.7-1.8-0.7-4.2-0.1-5.9 0.6-1.4 2.3-3.3 3.8-4.1 1.6-0.8 6.1-2.4 10.2-3.5 4.7-1.4 12.1-2.2 21-2.3zm11.4 39.7c12.8 12.9 20.8 21.7 20.8 23.2 0 1.4-2.6 11.9-5.5 23.3-3.1 11.3-6.1 22.1-6.8 23.8-0.6 1.7-2.6 3.8-4.5 4.5-1.8 0.9-12.8 4.1-24.2 7.1-11.5 3.1-21.9 5.5-23.2 5.5-1.5 0-10.4-7.9-23.3-20.8-11.5-11.5-21.3-20.4-21.9-20-0.6 0.5-1.1 4.6-1 9.3 0.2 4.5 1.1 12.3 2.2 17.2 1.1 4.8 3.5 11.9 5 15.6 1.6 3.6 5.4 10.1 8.5 14.4 2.9 4.2 8.8 10.4 13 13.8 4.2 3.3 11.5 8 16.2 10.3 4.7 2.3 12.8 5.1 17.8 6.2 6.5 1.4 12.6 1.7 20.8 1.4 6.6-0.4 15-1.7 19.5-3.2 4.4-1.3 8.5-2.6 9.2-2.6 0.6 0 36.4 35.1 79.3 78.1 42.9 42.8 78.5 78.9 79.3 80.1 0.7 1.5 0.3 4.7-1.5 10.4-1.3 4.5-2.8 13.4-3.2 19.8-0.3 7.9 0 14.5 1.2 20.2 1 4.8 3.5 12.1 5.4 16.5 2.1 4.4 6.3 11.4 9.4 15.7 3.1 4.2 8.9 10 12.6 13.1 4 3 10.9 7.4 15.7 9.7 4.8 2.3 12.6 5 17.4 6.1 4.9 1.1 12.7 1.9 17.2 1.9 4.7 0 8.8-0.3 9.3-0.8 0.4-0.6-8.5-10.3-20-21.8-12.9-13-20.8-21.8-20.8-23.3 0-1.3 2.5-11.7 5.5-23.2 3-11.5 6.1-22.1 6.7-23.9 0.6-1.7 2.7-3.6 4.5-4.5 1.9-0.8 12.8-4 24.3-7.1 11.5-2.9 21.8-5.5 23.2-5.5 1.5 0 10.4 8 23.5 21.2 18.1 18 21.1 20.7 21.9 18.6 0.5-1.4 0.6-7.5 0.2-13.5-0.5-7.2-1.8-14.2-3.9-20.2-1.7-5-5-12.2-7.2-15.9-2.1-3.6-7.5-10.2-11.9-14.6-4.4-4.5-11-9.8-14.7-11.9-3.6-2.2-10.8-5.5-15.9-7.4-7.9-2.8-11.1-3.3-24.4-3.3-12.6-0.1-16.9 0.4-24.2 2.7-6.2 1.9-9.5 2.4-11.1 1.6-1.1-0.7-37.2-36.3-80-79.3-42.9-42.9-78-78.5-78-79.2 0-0.8 1.2-4.8 2.7-9.2 2.2-6.5 2.7-10.9 2.7-23.9 0-14.3-0.3-16.8-3.3-25-1.9-5.1-5.2-12.3-7.4-15.9-2.1-3.7-7.4-10.3-11.9-14.7-4.4-4.4-11-9.8-14.6-11.9-3.7-2.2-10.9-5.5-15.9-7.2-6.5-2.2-12.8-3.3-21.4-3.8-6.8-0.4-12.6-0.1-13.3 0.4-0.4 0.6 8.5 10.5 20 21.9zm256.3 18.4l-15.9 32.3c-74.4 74.4-96.1 96.6-96.1 97.3 0 0.7 4 5.3 8.9 10 4.8 4.9 9.4 9 10.1 9 0.7 0 22.9-21.7 49.2-48.1l48.1-48 32.4-15.9 38.6-57.5-17.8-17.8zm-211.3 181.9c0.1 1.2 0.7 2.4 1.5 2.8 0.6 0.2 2.3 2.8 3.6 5.5 1.4 2.7 2.5 7.3 2.5 10.4 0 2.9-0.7 7.2-1.6 9.4-1 2.2-4 6-6.7 8.6-3.2 2.8-6.9 4.9-9.8 5.4-2.5 0.3-7 0.4-10 0-3.4-0.4-7.5-2.1-10.4-4.3l-4.9-3.6c-85.9 85.7-94 94.5-96.6 100.1-1.7 3.7-3.5 10.3-3.9 14.7-0.5 4.5-0.2 10.6 0.6 14.3 0.8 3.5 2.6 9.1 4.1 12.2 1.6 3.1 5.2 8.5 8.3 11.8 3.2 3.4 8.5 7.4 12.8 9.5 4.1 2 10.7 4.1 14.7 4.8 4.8 0.7 9.9 0.7 14.7-0.1 4-0.6 10.4-2.6 14.1-4.3 5.6-2.6 14.3-10.7 52.8-49.2l46.1-46.1c-5.8-8-7.5-12-8-15.3-0.4-3.1-0.4-7.6 0.1-10.2 0.4-2.7 2.4-6.4 4.6-9 2.2-2.5 6.1-5.4 8.6-6.7 2.6-1.3 7-2.2 9.8-2.2 2.9 0 7.6 1.1 10.4 2.4 2.9 1.3 5.5 2.9 5.9 3.7 0.3 0.6 1.5 1.2 2.6 1.2 1.3 0 4.9-2.8 8.4-6.1l6.1-6.3c-52.1-52.1-67.5-67.1-67.9-67.1-0.4 0-3.4 2.5-6.7 5.7-3.3 3.3-5.9 6.9-5.8 8zm-8.1 65.8c2 0 4.6 1.1 5.9 2.4 1.3 1.4 2.4 4 2.4 5.8 0 2.8-6.7 10.1-39.3 42.8-21.8 21.7-40.3 39.4-41.2 39.4-0.7 0-2.8-0.6-4.5-1.5-1.7-0.8-3.5-2.8-4.3-4.2-0.6-1.5-1.3-3.5-1.4-4.3-0.3-0.8 17.5-19.2 39.4-41 32.9-32.8 40.2-39.4 43-39.4z"/>
</svg>