<svg version="1.2" xmlns="http://www.w3.org/2000/svg" viewBox="0 0 512 512" width="512" height="512">
	<title>outil</title>
	<style>
		.s0 { fill: #ffffff } 
	</style>
	<path id="Path 0" fill-rule="evenodd" class="s0" d="m148.8 69.1c9.3-0.1 12.8 0.3 20.4 2.5 5.1 1.4 12.2 4.1 15.8 5.9 3.6 1.8 9.5 5.7 13.3 8.6 3.7 3 9.3 8.6 12.3 12.4 3.1 3.8 7.2 10 9 13.8 1.9 3.7 4.3 10 5.5 14 1.1 3.9 2.3 11.5 2.6 16.7 0.5 7.2 0.2 11.9-3.2 29.1l40.5 40.4 77.5-77.5 13.7-27.5 28.4-19.2c16.1-11 29.4-19.3 30.6-19.3 1.6 0 6.6 4.3 16.1 13.8 9.5 9.5 13.7 14.4 13.7 16 0 1.2-7.8 13.8-17.8 28.5-9.7 14.4-18.4 27.2-19.2 28.3-0.8 1.2-7.8 5.3-29.5 16.3l-77 77.1 40.4 40.5 9.8-1.9c7.4-1.5 12.1-1.8 19.3-1.3 5.2 0.3 12.9 1.5 17 2.7 4.1 1.2 10.9 3.9 15 6.2 4.1 2.2 10.1 6.1 13.3 8.6 3.2 2.6 8.3 7.8 11.4 11.7 3 3.9 7.1 10 8.9 13.8 1.9 3.7 4.3 10 5.5 14 1.2 4.1 2.3 11.6 2.6 17.7 0.4 7.6 0.1 12.6-1.1 18-0.9 4.1-2.4 9.1-3.4 11-1.5 3-2.2 3.5-5.7 3.8-4 0.3-4.1 0.1-44-39.9l-13.5 3.6c-7.4 2-13.6 3.7-13.7 3.8-0.2 0.1-1.9 6.3-7.4 27.2l20.1 20c19.9 19.8 20.1 20 19.8 24-0.2 3.1-0.9 4.2-3.3 5.6-1.6 1-6.8 2.5-11.5 3.5-6.2 1.2-11.1 1.5-18.5 1.1-5.5-0.3-12.7-1.3-16-2.2-3.3-0.8-9.6-3.3-14-5.4-4.4-2.1-10.9-6-14.4-8.7-3.6-2.7-8.5-7.4-11.1-10.4-2.5-3-6.3-8.4-8.4-12-2.1-3.6-5.2-10.6-6.8-15.5-2.3-6.9-3.2-11.5-3.6-19.5-0.4-7.7 0-13.1 3-29.5l-9.8-9.8c-5.5-5.3-10.4-9.7-10.9-9.7-0.6 0-3.3 2.3-6 5.1-2.8 2.8-6.4 5.7-8 6.6-1.7 0.8-5 1.5-7.5 1.5-3.2-0.1-5.8-1-9.3-3.2-2.6-1.6-5.6-3-6.6-3-1.1 0-2.7 0.7-3.5 1.5-0.9 0.8-1.6 2.7-1.6 4.3 0 1.9 1.4 4.1 5 7.7 3.8 3.8 5 5.7 5 8 0 2.6-5.3 8.3-41.7 44.6-35.1 35-42.8 42.2-47.8 44.7-3.3 1.6-9.2 3.9-13 5.1-3.9 1.1-9.7 2.1-13 2.1-3.3 0-8.7-0.7-12-1.6-3.3-0.9-8.7-2.9-12-4.5-3.3-1.6-8.3-4.9-11-7.3-2.8-2.3-6.7-6.7-8.8-9.7-2-3-4.9-8.5-6.3-12.4-1.5-4.3-2.7-10.1-3.1-15-0.3-5.5 0-10.1 1.1-14.7 0.9-3.8 3-9.6 4.7-13 2.7-5.4 9.2-12.4 44.9-48.5 38.4-38.8 42.1-42.3 45.2-42.3 2.6 0 4.3 1 8.3 5 3.5 3.6 5.8 5 7.7 5 1.5 0 3.4-0.7 4.2-1.5 0.9-0.8 1.6-2.4 1.6-3.5 0-1.1-1.4-4.1-3-6.7-2.3-3.6-3-6-3-9.5 0-2.7 0.6-6 1.4-7.5 0.8-1.6 3.7-5 6.5-7.8 2.8-2.7 5.1-5.4 5.1-6 0-0.6-4.4-5.4-19.5-20.7l-10 1.8c-7.2 1.2-12.7 1.5-19.5 1.1-5.2-0.3-12.2-1.3-15.5-2.2-3.3-0.8-9.6-3.3-14-5.4-4.4-2.1-11-6.2-14.8-9.2-3.7-3-9.2-8.6-12.3-12.4-3.1-3.8-7.3-10.6-9.4-15-2.2-4.4-4.7-10.9-5.6-14.5-1.3-4.8-1.8-10.1-1.8-20 0-11.7 0.4-14.4 2.5-20.5 1.8-5.1 3.1-7.3 4.9-8.2 1.7-0.8 3.3-0.8 5-0.2 1.4 0.6 11.3 9.8 41.5 40l13.5-3.6c7.4-1.9 13.6-3.6 13.7-3.8 0.2-0.1 1.9-6.3 7.4-27.2l-19.5-19.5c-10.7-10.7-19.9-20.6-20.4-22-0.6-1.5-0.6-3.4-0.1-4.8 0.5-1.2 1.9-2.7 3.1-3.4 1.3-0.6 5-1.9 8.3-2.8 3.9-1.2 9.9-1.8 17.2-1.9zm9.3 32.4c10.5 10.6 17 17.8 17 19 0 1.1-2.1 9.7-4.5 19-2.5 9.3-5 18.1-5.5 19.5-0.5 1.4-2.2 3.1-3.7 3.7-1.5 0.7-10.5 3.3-19.8 5.8-9.4 2.5-17.9 4.5-19 4.5-1.2 0-8.5-6.5-19-17-9.4-9.4-17.4-16.7-17.9-16.4-0.5 0.4-0.9 3.8-0.8 7.6 0.1 3.7 0.9 10.1 1.8 14.1 0.9 3.9 2.8 9.7 4.1 12.7 1.3 3 4.4 8.3 6.9 11.8 2.4 3.4 7.2 8.5 10.6 11.3 3.5 2.7 9.4 6.5 13.3 8.4 3.8 1.9 10.4 4.2 14.5 5.1 5.3 1.1 10.3 1.4 17 1.1 5.4-0.3 12.3-1.4 16-2.6 3.6-1.1 6.9-2.1 7.5-2.1 0.5 0 29.7 28.7 64.8 63.8 35.1 35 64.2 64.5 64.8 65.5 0.6 1.2 0.3 3.8-1.2 8.5-1.1 3.7-2.3 10.9-2.6 16.2-0.3 6.4 0 11.8 1 16.5 0.8 3.9 2.8 9.9 4.4 13.5 1.7 3.6 5.1 9.3 7.7 12.8 2.5 3.4 7.2 8.2 10.3 10.7 3.2 2.5 8.9 6.1 12.8 7.9 3.9 1.9 10.3 4.1 14.2 5 4 0.9 10.4 1.6 14.1 1.6 3.8 0 7.2-0.3 7.6-0.7 0.3-0.5-7-8.4-16.4-17.8-10.5-10.6-17-17.8-17-19 0-1.1 2.1-9.6 4.5-19 2.5-9.4 5-18.1 5.5-19.5 0.5-1.4 2.2-3 3.7-3.7 1.5-0.7 10.4-3.3 19.8-5.8 9.4-2.4 17.9-4.5 19-4.5 1.2 0 8.5 6.5 19.2 17.3 14.8 14.7 17.3 16.9 17.9 15.2 0.4-1.1 0.5-6.1 0.2-11-0.4-5.9-1.5-11.6-3.2-16.5-1.4-4.1-4.1-10-5.9-13-1.7-3-6.1-8.4-9.7-12-3.6-3.6-9-8-12-9.7-3-1.8-8.9-4.5-13-6-6.5-2.3-9.1-2.7-20-2.7-10.3-0.1-13.8 0.3-19.8 2.2-5 1.5-7.7 1.9-9 1.3-0.9-0.6-30.4-29.7-65.4-64.8-35.1-35.1-63.8-64.2-63.8-64.8 0-0.6 1-3.9 2.2-7.5 1.8-5.3 2.2-8.9 2.2-19.5 0-11.7-0.2-13.8-2.7-20.5-1.5-4.1-4.2-10-6-13-1.7-3-6.1-8.4-9.7-12-3.6-3.6-9-8-12-9.7-3-1.8-8.9-4.5-13-5.9-5.3-1.8-10.4-2.7-17.5-3.1-5.5-0.3-10.3-0.1-10.8 0.3-0.4 0.5 6.9 8.6 16.3 17.9zm209.5 15.1l-13 26.4c-60.8 60.8-78.5 78.9-78.5 79.5 0 0.6 3.2 4.3 7.2 8.2 4 4 7.7 7.3 8.3 7.3 0.6 0 18.7-17.7 40.2-39.3l39.3-39.2 26.5-13 31.6-47-14.6-14.6zm-172.7 148.7c0.1 1 0.6 2 1.2 2.3 0.5 0.2 1.9 2.3 3 4.5 1.1 2.2 2 6 2 8.5 0 2.4-0.6 5.9-1.3 7.7-0.8 1.8-3.3 4.9-5.5 7-2.6 2.3-5.6 4-8 4.4-2 0.3-5.7 0.4-8.2 0-2.7-0.3-6.1-1.7-8.5-3.5l-4-2.9c-70.2 70-76.8 77.2-78.9 81.8-1.4 3-2.9 8.4-3.2 12-0.4 3.7-0.2 8.7 0.5 11.7 0.6 2.9 2.1 7.4 3.3 10 1.3 2.5 4.3 6.9 6.8 9.6 2.6 2.8 7 6.1 10.5 7.8 3.3 1.6 8.7 3.3 12 3.9 3.9 0.6 8.1 0.6 12-0.1 3.3-0.5 8.5-2.1 11.5-3.5 4.6-2.1 11.7-8.7 43.2-40.2l37.7-37.7c-4.8-6.5-6.2-9.8-6.6-12.5-0.3-2.5-0.3-6.2 0.1-8.3 0.3-2.2 2-5.3 3.8-7.4 1.8-2 5-4.4 7-5.5 2.1-1 5.7-1.8 8-1.8 2.4 0 6.2 0.9 8.5 2 2.4 1.1 4.5 2.4 4.8 3 0.3 0.5 1.3 1 2.2 1 1 0 4-2.3 6.8-5l5-5.1c-42.6-42.6-55.2-54.9-55.5-54.9-0.3 0-2.8 2.1-5.5 4.7-2.7 2.7-4.8 5.6-4.7 6.5zm-6.6 53.8c1.6 0 3.7 0.9 4.8 2 1.1 1.1 2 3.2 2 4.7 0 2.3-5.5 8.3-32.2 35-17.8 17.7-32.9 32.2-33.6 32.2-0.6 0-2.3-0.5-3.7-1.2-1.4-0.7-2.9-2.3-3.5-3.5-0.5-1.2-1.1-2.8-1.2-3.5-0.2-0.6 14.3-15.7 32.2-33.5 26.9-26.8 32.9-32.2 35.2-32.2z"/>
</svg>