<svg version="1.2" xmlns="http://www.w3.org/2000/svg" viewBox="0 0 512 512" width="512" height="512">
	<title>suivi-de-commande</title>
	<style>
		.s0 { fill: #ffffff } 
	</style>
	<path id="Path 0" fill-rule="evenodd" class="s0" d="m205.8 0.1c7.2-0.1 10.9 0.4 16.9 2.4 4.3 1.3 10.5 4.2 13.8 6.3 3.3 2.1 8.4 6.5 11.3 9.8 3 3.2 6.4 8.2 7.7 10.9 1.3 2.7 2.8 7 3.4 9.5 0.5 2.5 1.2 5.6 1.5 7 0.3 1.8 2.3 3.6 7.2 6.5 3.7 2.2 9.9 7 13.8 10.6 3.9 3.6 8.9 9.1 15.1 18l53.7-0.1c45.7 0 54.3 0.2 57.3 1.5 1.9 0.8 3.9 2.6 4.5 4 0.7 1.6 0.9 74.1 0.5 421.7l-2.5 1.9c-2.5 2-5.6 2-406 1.9l-2-2.7c-2.1-2.8-2.1-3.2-2-212.5 0-137.8 0.3-210.5 1-211.8 0.5-1.1 2.5-2.5 4.2-3 2.1-0.7 23.5-1 111.3-1l3-4.7c1.6-2.6 5-6.9 7.5-9.6 2.5-2.8 7.2-6.9 10.5-9.2 3.3-2.4 7.8-5.2 10-6.3 3.8-1.9 4.1-2.3 5.7-9.8 1.1-4.9 3.1-10.2 5.3-13.9 2-3.3 5.7-8.2 8.3-10.8 2.6-2.6 6.7-6.1 9.2-7.7 2.5-1.6 8.1-4.3 12.5-5.9 6.6-2.4 9.6-2.9 17.2-3zm-17.1 18.6c-2.3 1.1-6.4 4-9.1 6.5-2.8 2.5-6.3 6.9-7.9 9.9-2.3 4.2-3.1 7.2-3.5 13.5-0.4 5-1.2 8.8-2.1 9.9-0.8 0.9-4.2 3.1-7.5 4.7-3.3 1.7-8.7 4.9-12 7.3-3.3 2.3-7.6 6.2-9.6 8.6-2 2.4-5 6.9-6.7 9.9-1.7 3-3.9 8.4-5 12-1.1 3.6-2.3 9.1-2.6 12.3l-0.6 5.7h168.5c-1.3-9.7-2.7-15.9-4-20-1.3-4.1-4.1-10.2-6.3-13.5-2.1-3.3-6.6-8.5-9.9-11.5-3.3-3-9.9-7.5-14.7-10-6-3.2-8.9-5.2-9.5-7-0.5-1.4-1.1-5.2-1.4-8.5-0.2-3.4-1.5-8.4-2.9-11.5-1.3-3-3.8-7.1-5.5-9-1.6-1.9-5.2-4.9-7.9-6.7-2.7-1.7-7.4-3.8-10.4-4.7-3-0.9-8.4-1.6-12-1.5-3.6 0.1-8 0.4-9.9 0.8-1.9 0.4-5.3 1.6-7.5 2.8zm-172.6 477.3h381v-399c-72.9 0-94 0.3-94 0.8 0 0.4 0.7 4.2 1.5 8.5 0.8 4.2 1.5 11.3 1.5 15.7 0 6.7-0.3 8.3-2 10-2 2-3.4 2-97.2 2-93.2 0.1-95.4 0-97.8-1.9-2.3-1.8-2.5-2.5-2.3-10.3 0.1-4.6 0.6-10.8 1.1-13.8 0.6-3 1.3-6.7 1.6-8.2l0.6-2.8h-94zm456.5-354.9c2.2-0.1 6.7 0.6 10 1.4 3.3 0.9 7.8 2.7 10 4 2.2 1.2 5.9 4.3 8.3 6.6 2.4 2.4 5.9 7.5 11.2 18.4l-0.5 228-15.3 53.5c-8.3 29.4-16 54.6-17 56-1.3 1.6-3.1 2.6-5.3 2.8-2.2 0.2-4.2-0.3-5.7-1.5-1.8-1.5-5.1-12-34.2-116.3v-106.8c0-66.9 0.4-108.9 1-112.7 0.6-3.3 2.1-8.3 3.3-11 1.3-2.8 4.1-7 6.4-9.5 2.2-2.5 6.7-5.9 9.9-7.7 3.3-1.8 7.7-3.6 9.9-4.1 2.2-0.6 5.8-1 8-1.1zm-18.4 24.9c-1.4 1.9-3.1 5-3.8 7-0.7 2.1-1.2 9.5-1.3 18.2v14.8h47v-32.5c-5.8-9.8-7.7-11.5-12-13.7-4.1-2.1-6.9-2.9-11-2.8-4 0-7 0.7-10.9 2.7-3 1.6-6.6 4.4-8 6.3zm-4.6 219.5l46.5 0.5v-165h-47zm13 52c5.4 19.2 9.9 35.2 10.1 35.5 0.2 0.3 0.6 0.3 0.9 0 0.2-0.3 5-16.5 10.5-36 5.5-19.5 10-35.6 10-35.8 0-0.1-9.5-0.2-21.1-0.2-11.6 0-20.9 0.3-20.6 0.7 0.2 0.5 4.8 16.5 10.2 35.8zm-253.5-406.9c3 0.3 7.5 1.4 10 2.5 2.5 1.1 6.2 3.7 8.3 5.7 2.1 2 4.7 5.4 5.8 7.4 1 2.1 2.3 6.2 2.9 9 0.7 3.7 0.7 6.9-0.1 10.8-0.6 3-2.1 7.3-3.4 9.5-1.2 2.2-4 5.5-6.1 7.4-2.2 1.9-5.7 4.2-7.9 5.2-2.2 1-6.3 2.1-9 2.5-3.5 0.4-6.8 0.1-11-1.1-3.3-0.9-7.8-3-10-4.5-2.2-1.5-5.5-4.9-7.2-7.6-1.9-2.8-3.8-7.5-4.4-10.9-1-4.6-1-7.4-0.1-12 0.7-3.5 2.6-8 4.5-10.9 1.7-2.7 5.1-6.2 7.4-7.8 2.4-1.5 6.7-3.5 9.5-4.3 3.3-0.9 7.3-1.3 10.8-0.9zm-15 21.3c-0.8 1.3-1.7 4.9-1.9 8-0.3 5 0 6 2.5 9 1.6 1.8 4.1 4 5.6 4.7 1.6 0.8 4.5 1.4 6.5 1.4 2.3 0 5.2-0.9 7.3-2.2 1.9-1.3 4.3-3.9 5.2-5.8 1-1.9 1.8-5.1 1.8-7 0-1.9-0.9-5-2-6.8-1.1-1.7-3.5-4.1-5.3-5.2-1.8-1.1-5-2-7.2-2-2.2 0-5.6 0.8-7.5 1.8-1.9 0.9-4.1 2.8-5 4.1zm11.2 89.1c1.3-0.1 3.5 0.8 7.8 4v38l-2.8 2c-1.5 1.2-3.7 2.1-5 2-1.2 0-3.3-1.1-4.7-2.5-2.5-2.5-2.5-2.6-2.5-20.5 0.1-17.7 0.1-18.1 2.5-20.5 1.3-1.4 3.4-2.5 4.7-2.5zm-61.7 10c1.5 0 3.4 1.1 4.7 2.8 1.3 1.5 5.6 9.3 9.6 17.2 5.3 10.4 7.2 15.1 6.8 16.7-0.3 1.3-1.6 3.2-2.9 4.3-1.2 1.1-3.3 2-4.7 2-1.4 0-3.5-1-4.6-2.2-1.2-1.3-5.6-8.9-9.8-17.1-5.4-10.4-7.4-15.4-7-17 0.3-1.2 1.7-3.2 3-4.5 1.4-1.2 3.6-2.2 4.9-2.2zm128.2 0c1.3 0 3.5 1 4.9 2.2q2.7 2.3 2.7 5.3c0 1.9-3 8.3-8.1 17.5-4.4 8-9 15.5-10.1 16.7-1.2 1.4-3.3 2.3-4.9 2.3-1.5 0-3.4-0.6-4.3-1.3-0.9-0.7-2.2-2.3-2.8-3.7-0.7-1.4-1-3.5-0.7-4.8 0.3-1.2 4.3-8.8 8.8-16.9 4.6-8 9.2-15.2 10.3-16 1.1-0.7 3-1.3 4.2-1.3zm-185 29c2 0 6.7 3 16.2 10.3 7.4 5.6 14.7 11.4 16.2 12.9 1.6 1.6 2.9 3.8 2.9 5 0 1.3-0.9 3.5-2 5-1.5 2.1-2.9 2.8-5.5 2.8-2.9 0-5.9-1.8-18.1-11.3-8.1-6.1-15.3-12.1-16.1-13.2-0.7-1.1-1.3-3-1.3-4.3 0.1-1.3 1.2-3.4 2.5-4.7 1.4-1.5 3.5-2.5 5.2-2.5zm238.8 0.5c1.6 0.3 3.8 1.5 4.8 2.8 1 1.2 1.8 3.2 1.7 4.4 0 1.3-1.2 3.6-2.8 5.3-1.5 1.6-8.6 7.4-15.7 12.9-10.3 7.9-13.7 10.1-16.3 10.1q-3.2 0-5.7-2.5c-1.4-1.4-2.5-3.5-2.6-4.8 0-1.2 0.8-3.1 1.8-4.3 1-1.2 7.6-6.6 14.8-12.1 7.1-5.5 13.9-10.5 15-11.1 1.1-0.7 3.3-1 5-0.7zm-116.5 31c7.4 0.2 17.3 1.1 22 2 4.7 0.9 13 3.2 18.5 5 5.5 1.8 14.3 5.3 19.5 7.7 5.2 2.4 13.8 7 19 10.2 5.2 3.2 14.4 9.5 20.5 14.1 6 4.5 14.9 12 19.7 16.6 7.8 7.4 8.8 8.8 8.8 11.9 0.1 3.1-0.9 4.5-9.2 12.5-5.2 4.9-13.6 12.2-18.8 16.1-5.2 4-13.6 9.7-18.5 12.8-5 3.1-13.5 7.9-19 10.6-5.5 2.7-15.4 6.7-22 8.9-6.6 2.2-16.5 4.7-22 5.6-5.5 0.9-15.4 1.7-22 1.7-6.6 0-16.5-0.8-22-1.7-5.5-0.9-15.4-3.5-22-5.6-6.6-2.2-17-6.4-23-9.4-6.1-3-15.7-8.5-21.5-12.3-5.8-3.8-14.1-9.7-18.5-13.2-4.4-3.6-11.7-10-16.3-14.5-7.3-7.1-8.3-8.4-8.3-11.5 0.1-3.1 1.1-4.5 8.4-11.5 4.5-4.4 13.4-11.9 19.7-16.7 6.3-4.7 15.3-11 20-13.8 4.7-2.8 12.5-7.1 17.5-9.5 4.9-2.4 12.1-5.5 16-7 3.8-1.4 11.3-3.7 16.5-5 5.2-1.3 12.6-2.9 16.5-3.4 3.8-0.5 13.1-0.8 20.5-0.6zm-28.3 20.6c-3.8 2-8.7 5.8-12.7 9.8-3.7 3.7-7.7 9-9.2 12.1-1.5 3-3.4 8.2-4.2 11.5-0.9 3.3-1.6 9.1-1.6 13 0 3.8 0.7 9.7 1.6 13 0.9 3.3 3 8.7 4.7 12 1.7 3.3 5.9 8.7 9.2 12 3.3 3.3 8.7 7.5 12 9.2 3.3 1.7 8.7 3.8 12 4.7 3.3 0.9 9.1 1.6 13 1.6 3.8 0 9.6-0.7 12.7-1.5 3.2-0.8 8.6-2.9 12-4.6 3.6-1.8 8.9-5.8 12.4-9.3 3.5-3.5 7.4-8.8 9.2-12.4 1.8-3.4 3.9-8.8 4.7-12 0.8-3.1 1.5-9.1 1.5-13.2 0-4.1-0.7-10-1.5-13-0.8-3-2.7-8-4.2-11-1.5-3.2-5.6-8.5-9.7-12.6-4.9-4.9-9.1-8-13.6-10.1-3.6-1.7-8.9-3.6-11.8-4.2-2.8-0.6-8.5-1.1-12.5-1-3.9 0-9.6 0.7-12.5 1.5-2.8 0.8-8 2.8-11.5 4.5zm83.7 13.1c1.4 2.4 3.7 7.9 5.2 12.3 2.5 7 2.8 9.5 2.8 20.5 0.1 10.4-0.3 13.8-2.2 20-1.3 4.1-3.7 10-5.3 13-1.6 3-2.7 5.6-2.4 5.7 0.3 0.2 2.4-0.7 4.7-1.9 2.4-1.1 7.9-4.2 12.3-6.8 4.4-2.6 12.5-8.1 18-12.2 5.5-4.1 12.4-9.7 15.3-12.4l5.3-4.9c-3.6-3.6-8.7-8-13.6-12-5-4-12.8-9.7-17.5-12.8-4.7-3-11.9-7.3-16-9.6-4.1-2.2-7.8-4.1-8.3-4.1-0.4 0-0.7 0.2-0.7 0.5 0 0.3 1.1 2.4 2.4 4.7zm-137.4 7.3c-2.5 1.6-7.9 5.4-12 8.4-4.1 3-10.8 8.4-14.9 12l-7.4 6.6c6 5.2 11.2 9.4 15.3 12.7 4.1 3.4 10.6 8.2 14.5 10.8 3.8 2.6 11.4 7.1 16.7 9.9 5.4 2.8 9.8 5 9.8 4.8 0-0.1-1.7-4-3.9-8.7-2.1-4.7-4.5-11-5.2-14-0.8-3-1.4-10.5-1.4-16.5 0-8.6 0.6-12.6 2.4-18.5 1.3-4.1 3.5-9.8 4.9-12.5 1.5-2.8 2.7-5.3 2.8-5.8 0.1-0.4-0.2-0.7-0.5-0.7-0.3 0-4.2 2-8.6 4.3-4.4 2.4-10 5.6-12.5 7.2zm-75.6-31.5c1.7 0 11.4 2.8 21.6 6.2 11.5 3.9 19.2 7 20.3 8.3 0.9 1.1 1.7 3.2 1.7 4.7 0 1.6-1.1 3.9-2.5 5.3-1.3 1.4-3.2 2.5-4.2 2.5-1 0-10.9-2.9-22.1-6.5-15.1-4.9-20.5-7-21.2-8.5-0.6-1.1-1.1-3.2-1.2-4.7-0.1-1.7 0.7-3.5 2.2-5 1.4-1.4 3.5-2.3 5.4-2.3zm309.3 2.1c3-0.1 4.9 0.5 6.3 1.9 1.2 1.2 2 3.4 2 5.2 0 2.1-0.8 4.1-2.2 5.5-1.5 1.4-8.7 4.2-20.3 7.7-9.9 3.1-19.2 5.6-20.8 5.6-1.6 0-3.7-1-5.2-2.5-1.4-1.4-2.5-3.7-2.6-5.3 0-1.5 0.8-3.7 1.8-4.9 1.3-1.6 6.9-3.8 19.3-7.7 9.6-3 19.4-5.5 21.7-5.5zm-321.4 140.9h103.2l4.5 4.5v50c-0.1 45.9-0.2 50.1-1.8 51.8-1.6 1.6-5.1 1.8-54 1.7-50.9 0-52.3-0.1-54.2-2-2-1.9-2-3.5-2.4-101.4zm10.5 54.7l0.2 38.3h82v-78c-62.5 0-81.1 0.3-81.5 0.7-0.5 0.4-0.8 17.9-0.7 39zm319.3-39.2l2 2.5c1.1 1.4 1.9 3.8 1.9 5.3 0 1.5-1.1 3.8-4.9 7.7h-197.1l-2.5-2.5c-1.4-1.3-2.5-3.6-2.5-5 0-1.3 0.5-3.4 1.2-4.5 0.6-1.2 2.1-2.5 3.2-3 1.2-0.5 44.8-0.8 198.7-0.5zm-96 61.8c96.1 0.2 97.7 0.3 99.8 2.2q2.1 2 2.1 5.5c0 2-0.4 4-0.8 4.6-0.4 0.6-1.7 1.6-3 2.3-1.6 0.8-28.3 1.1-100 1.1-85.4 0-98-0.1-100-1.5-1.2-0.8-2.5-2.9-2.8-4.7q-0.5-3.3 1.1-5.6c0.9-1.2 2.6-2.7 3.8-3.2 1.2-0.5 44.5-0.8 99.8-0.7zm-65.6-201.9c6.4 0.2 9.3 0.9 14.7 3.5 4 1.8 8.8 5.2 11.8 8.1 2.8 2.9 6.4 7.9 8.2 11.8 2.9 6.1 3.3 7.6 3.3 15.7 0 8.1-0.4 9.7-3.2 15.5-1.7 3.6-4.7 8.3-6.6 10.5-1.9 2.2-5.9 5.5-8.9 7.3-2.9 1.8-8 4-11.3 4.8-4.3 1.2-8.2 1.5-13.5 1.1-5.5-0.5-9.3-1.5-13.8-3.6-3.4-1.7-8.4-5.2-11.1-7.8-2.6-2.6-5.8-6.7-7-9-1.2-2.4-2.9-7.1-3.7-10.5-1.1-4.1-1.5-8.1-1-11.5 0.3-2.9 1.4-7.4 2.3-10 1-2.6 3.4-7 5.4-9.8 2-2.7 6-6.7 9-8.7 2.9-2.1 8.1-4.7 11.4-5.8 4.5-1.5 7.9-1.9 14-1.6zm-19.3 22.9c-1.8 1.8-4.2 5-5.3 7.2-1.2 2.5-1.9 6.1-1.9 9.5 0 3.3 0.8 7.2 1.9 9.5 1 2.2 3.6 5.7 5.7 7.7 2.1 2.1 5.6 4.4 7.6 5.3 2.1 0.8 6.2 1.5 9.3 1.5 3 0 6.9-0.6 8.7-1.3 1.8-0.7 5-2.6 7.1-4.2 2.1-1.6 4.9-5.2 6.3-8 1.7-3.5 2.4-6.6 2.4-10.5q-0.1-5.5-2.3-9.9c-1.2-2.4-4-6-6.2-7.8-2.2-1.8-6.3-4-9-4.8-2.8-0.8-6.2-1.5-7.5-1.4-1.4 0-5 0.9-8 1.9-3.1 1.1-7 3.4-8.8 5.3zm-69.6 130.7c2 0 4.2 0.8 5.4 2 1.1 1.2 2 3.4 2 5.3 0.1 2.9-1.6 4.8-16.7 19.2-9.3 8.8-19.4 18.4-22.6 21.3-4 3.6-6.6 5.2-8.5 5.3-1.6 0-3.6-1-4.9-2.3-1.1-1.2-5.8-7.9-10.3-14.8-6.5-10-8.1-13-7.6-15 0.4-1.3 1.4-3.3 2.4-4.2 1-1.1 3.3-1.8 5.5-1.8 2.9 0 4.2 0.7 6.3 3.3 1.4 1.8 4.2 5.8 6.2 9 2 3.2 3.9 5.8 4.2 5.8 0.2 0 8.3-7.5 17.8-16.6 15.5-14.6 17.8-16.5 20.8-16.5z"/>
</svg>