<svg version="1.2" xmlns="http://www.w3.org/2000/svg" viewBox="0 0 458 458" width="458" height="458">
	<title>taux-svg</title>
	<style>
		.s0 { fill: #443b3a } 
	</style>
	<path id="Path 0" fill-rule="evenodd" class="s0" d="m228.8 0.1c1.7-0.1 5.1 0.8 7.4 1.8 2.4 1 5.7 3.4 7.5 5.2 1.7 1.9 6.6 10.7 18.8 35.9l4.5 0.6c2.5 0.4 11.2 1.7 19.5 3 12.7 1.9 15.6 2.7 18.9 5.1 2.2 1.5 5 4.8 6.3 7.3 1.4 2.7 2.3 6.2 2.3 8.8 0 2.3-0.7 5.9-1.6 7.9-0.9 2.3-6.9 9.2-28.5 30.8l2.6 17c1.4 9.3 2.5 18.8 2.5 21 0 2.2-0.9 5.8-1.9 8-1 2.2-2.9 5-4.2 6.2-1.3 1.2-4.1 2.9-6.2 3.7-2 0.9-5.7 1.6-8.2 1.6-3.7 0-7.6-1.6-39.5-18l-18 9c-15.1 7.6-18.8 9-22.8 9-2.8 0-6.4-0.9-9.2-2.3-2.4-1.2-5.7-4-7.2-6.2-1.6-2.2-3.1-5.6-3.5-7.5-0.4-2.2 0.6-10.7 5.8-41.5l-13.5-13.5c-8.3-8.3-14.1-15-15.1-17.3-0.8-2-1.5-5.6-1.5-8 0-2.3 0.9-6 1.9-8.2 0.9-2.2 3.3-5.3 5.2-6.9 1.9-1.6 4.5-3.3 5.9-3.8 1.4-0.5 10.1-2 19.5-3.4 9.3-1.3 17.6-2.6 18.2-2.9 0.7-0.3 4.7-7.6 8.8-16.3 4.2-8.6 9-17.2 10.8-19.1 1.8-1.8 5-4.1 7.2-5.1 2.2-1 5.5-1.9 7.2-1.9zm-21.2 58.4c-1.1 0.7-11 2.5-22 4-11 1.5-20.4 3.1-21 3.6q-0.7 0.9 0.3 0.9c0.7 0 1.2 0.5 1.2 1 0 0.5 7 7.9 15.5 16.3 12.6 12.3 15.5 15.7 15.5 17.9 0 1.6-1.6 11.7-3.5 22.6-1.9 10.8-3.1 20.1-2.7 20.5 0.4 0.5 9-3.5 19.2-8.8 10.2-5.3 19.9-9.8 21.5-10.1 2.4-0.4 6.9 1.6 22 9.6 13 6.8 19.3 9.7 20 9 0.7-0.7-0.1-7.2-2.3-19.8-1.8-10.3-3.2-20.3-3.3-22.2 0-3.2 1.4-4.9 15.8-19.2 11-10.9 15.5-16 14.8-16.8-0.6-0.6-10.2-2.4-21.5-4.1-13.6-2-21.3-3.6-22.9-4.7-1.3-1-6.6-9.7-12-20.2-5.4-10.3-10.3-18.6-11.1-18.8-1.1-0.2-4.5 5.3-11.5 18.9-5.5 10.6-10.9 19.8-12 20.4zm-132 17c3.3 0.3 6.4 1.4 9 3.3 3.2 2.2 5.3 5.3 11 16.4 3.8 7.5 7.4 14 7.9 14.5 0.4 0.4 7.9 1.8 16.5 3 12.2 1.8 16.4 2.8 19.1 4.6 1.9 1.3 4.5 4.3 5.7 6.8 1.3 2.4 2.3 5.9 2.3 7.7 0 1.7-0.7 4.9-1.5 7-1 2.2-6.4 8.5-25 27.2l2.8 15.7c2.2 11.8 2.6 16.7 2 19.3-0.5 1.9-1.9 5-3.1 6.8-1.2 1.7-4 4.1-6.2 5.2-2.4 1.2-5.9 2-8.8 2-3.7 0-6.9-1.2-14.7-5.2-5.5-2.8-11.9-6.1-18.5-9.8l-14.8 7.5c-12.6 6.5-15.4 7.5-19.7 7.5-3.4 0-6.3-0.8-9-2.4-2.2-1.3-5-3.8-6.1-5.7-1.2-1.9-2.5-5-2.9-6.9-0.4-2.3 0.3-8.8 5-34l-12.1-12.2c-9.9-10-12.4-13.1-13.5-16.8-1-3.5-1-5.4-0.1-8.7 0.7-2.4 2-5.4 2.9-6.7 1-1.3 3.1-3.3 4.8-4.5 2.2-1.5 7.4-2.7 19.5-4.6 9.1-1.4 16.6-2.6 16.6-2.8 0.1-0.1 3.4-6.6 7.3-14.4 5.3-10.8 7.9-14.8 10.3-16.5 1.8-1.2 4.4-2.5 5.8-3 1.4-0.4 4.7-0.5 7.5-0.3zm-19 49.6c-1.5 1.5-5.7 2.5-18.5 4.4-9.1 1.3-17.2 2.5-18 2.5-0.8 0 4.7 6.2 12.2 13.7 10.2 10.2 13.8 14.4 13.8 16.3 0 1.4-1.4 9.5-3 18-1.7 8.5-2.8 15.6-2.5 15.8 0.3 0.1 7.2-3.2 15.5-7.3 8.2-4.1 16.2-7.5 17.7-7.5 1.6 0 9.6 3.5 18 7.8 8.4 4.2 15.2 7.5 15.3 7.2 0-0.3-1.1-7.4-2.5-15.7-1.4-8.4-2.5-16.8-2.5-18.5 0-2.9 1.6-4.9 13-16 11.4-11.3 12.7-12.9 10.7-13.3-1.2-0.3-9.2-1.6-17.7-3-8.5-1.4-16.1-3.1-16.9-3.8-0.7-0.7-4.9-8.3-9.2-16.9-4.4-8.7-8-15.8-8.2-15.8-0.2 0-3.7 6.8-7.8 15.1-4.1 8.2-8.3 15.9-9.4 17zm330-49.6c3 0.3 6.5 1.5 8.7 3 3.1 2 5.1 5.1 10.9 16.8 3.9 7.8 7.2 14.3 7.3 14.4 0 0.2 7.1 1.3 15.6 2.6 8.5 1.3 16.9 3.1 18.5 4 1.6 0.8 4 2.6 5.1 3.9 1.2 1.2 2.9 3.8 3.8 5.6 0.9 1.7 1.6 4.2 1.6 5.5 0 1.2-0.6 4-1.2 6.2-0.9 3-4.3 7.1-25.3 28.6l2.8 16.2c2.4 13.7 2.6 16.7 1.6 19.7-0.7 1.9-2 4.7-3.1 6.3-1 1.5-3.7 3.7-6.1 4.8-3.2 1.7-5.4 2-9.7 1.7-4.4-0.4-8.2-1.9-32.5-14.9l-3 1.6c-1.6 1-8.2 4.3-14.5 7.6-9.5 4.8-12.4 5.8-16.5 5.9-3.3 0-6.3-0.8-9-2.3-2.1-1.2-5-3.8-6.2-5.7-1.3-1.9-2.6-5.1-3-7-0.3-2.1 0.5-9.8 4.9-34.5l-11.6-11.5c-6.9-6.9-12.1-13-13.1-15.2-0.8-2.1-1.5-5.3-1.5-7 0-1.8 1-5.3 2.3-7.7 1.2-2.5 3.8-5.5 5.7-6.8 2.7-1.8 6.8-2.8 17.5-4.3 7.7-1.1 15-2.3 16.2-2.5 1.8-0.4 3.9-3.7 9.3-14.5 4.9-9.8 8-14.7 10.2-16.5 1.8-1.3 4.7-2.9 6.3-3.5 1.6-0.5 5.2-0.7 8-0.5zm-19.2 49.8c-1.3 1.2-6.4 2.4-18.3 4.2-9.1 1.3-17.2 2.5-18 2.5-0.8 0 4.4 6 11.7 13.2 7.2 7.3 13.4 14.4 13.8 15.8 0.4 1.5-0.6 8.6-2.7 18.2-1.8 8.6-3 16-2.6 16.3 0.5 0.3 7.5-2.9 15.8-7 8.2-4.1 16.2-7.5 17.7-7.5 1.6 0 9.4 3.5 17.5 7.8 8.1 4.2 15 7.5 15.2 7.2 0.3-0.3-0.6-7-1.9-15-1.4-8-2.5-16.3-2.5-18.5 0.1-3.8 0.8-4.7 12.8-16.7 8.7-8.7 12.2-12.9 11.2-13.2-0.8-0.3-8.7-1.6-17.5-3.1-11.1-1.7-16.6-3-17.9-4.3-1-0.9-5.2-8.3-9.2-16.4-4.1-8.2-7.6-14.8-7.9-14.8-0.2 0-3.8 6.6-7.9 14.8-4.1 8.1-8.3 15.5-9.3 16.5zm-135.8 58.3c2.7 0.3 7.9 1.9 11.5 3.6 3.9 1.9 8.7 5.4 12.1 8.7 3.1 3.1 6.7 7.9 8.1 10.6 1.4 2.8 3.4 7.7 4.3 11 1.3 4.5 1.6 8.2 1.2 14.5-0.3 6.6-1.9 13-6.6 28.5-3.3 11-6.1 20.6-6.1 21.3 0 0.9 7.4 1.3 33.2 1.5 32 0.2 33.5 0.3 37.8 2.4 2.5 1.2 6.5 4 9 6.1 2.5 2.1 6.1 6.8 11.5 16.7v36c0 31.5-0.2 37-1.9 44-1 4.4-3.4 12.1-5.3 17-1.9 4.9-5.5 12.6-8.1 17-2.6 4.4-7.2 10.6-10.2 13.9-3 3.2-8 7.6-11 9.6-3 2.1-7.8 4.8-10.5 6-2.8 1.1-8.5 3-12.8 4.1-7 1.7-11.4 1.9-47.2 1.9-31.7 0-41.3-0.3-48.8-1.6-5-0.9-12.9-2.7-17.5-4-4.5-1.3-11.1-3.8-21.2-8.4l-4.8 4.8c-3 3.1-6.7 5.6-10.5 7-4.6 1.8-7.7 2.2-16.7 2.2-9.3 0-11.8-0.4-16.3-2.3-2.8-1.3-6.9-3.9-9.1-5.8-2.1-1.9-5-5.6-9.1-13.4v-132l2.5-4.9c1.4-2.7 4.7-6.9 7.5-9.4q5-4.4 10.5-5.9c4-1.1 8.5-1.4 16.5-1.1 8.2 0.3 12.1 0.9 15.5 2.4 2.5 1.1 6.2 3.5 12 8.4l10-10.7c5.6-6 13-14.9 16.5-19.8 3.6-4.9 9.1-14.4 12.4-21 3.2-6.6 7.1-15.6 8.5-20 1.4-4.4 3.4-11.6 4.5-16 1.2-4.4 3.2-9.7 4.6-11.7 1.4-2.1 4.2-5 6.2-6.5 2-1.6 5.7-3.4 8.3-4 2.5-0.7 6.7-1 9.5-0.7zm-13 32.4c-1.4 5.2-3.7 12.6-5.1 16.5-1.4 3.9-4.2 10.6-6.3 15-2.1 4.4-6.1 11.8-9 16.5-2.9 4.7-8.2 12.1-11.6 16.5-3.5 4.4-11.8 13.4-18.4 20l-12.1 12-0.1 113c10.5 5 16.3 7.4 19.6 8.5 3.3 1.2 8.9 2.8 12.5 3.7 5.1 1.2 14.9 1.6 45.5 2 26.1 0.3 41.5 0.1 46.5-0.6 4.6-0.7 10.2-2.4 14.5-4.5 5-2.4 8.8-5.3 13.2-10 4.6-4.8 7.7-9.4 11.3-16.8 2.8-5.8 6.2-14.7 7.6-20.3 2.4-9.6 2.5-11.2 2.5-37-0.1-14.9-0.6-29.6-1.1-32.7-0.6-3.2-1.8-7-2.8-8.5-1.1-1.6-3.9-3.8-6.3-5-4.3-2.2-5.1-2.3-42.2-2.3h-37.7c-4.7-4.7-6-7.1-6-8.5 0-1.4 3.6-14.5 8.1-29.2 4.4-14.8 8.3-29.5 8.6-32.8 0.4-4.5 0-7.3-1.5-11.5-1.2-3.1-3.9-7.4-6.1-9.7-2.3-2.4-6-5.2-8.4-6.3-2.3-1.1-5.4-2-6.9-2-1.8 0-3.3 0.8-4.3 2.3-0.8 1.2-2.6 6.5-4 11.7zm-113.5 92.8c-0.6 2.2-1 26.3-1 61.2 0 34.9 0.4 59 1 61.3 0.6 2.1 2.2 4.6 3.7 5.7 2.4 1.8 4.3 2.1 12.5 2 9.4 0 9.9-0.1 13-2.9l3.3-2.9c0.5-91.2 0.4-119.6 0.1-121.9-0.4-2.5-1.6-5.5-3-7-2.3-2.7-3-2.8-12.3-3.1-8.5-0.3-10.2 0-13.1 1.8-2.1 1.3-3.5 3.2-4.2 5.8z"/>
</svg>